<svg xmlns="http://www.w3.org/2000/svg" width="1280" height="720" viewBox="0 0 1280 720">
  <defs>
    <linearGradient id="bg" x1="0" y1="0" x2="0" y2="1">
      <stop offset="0" stop-color="#111922"/>
      <stop offset="1" stop-color="#141C24"/>
    </linearGradient>
  </defs>
  <rect width="1280" height="720" fill="url(#bg)"/>
  <g transform="translate(410,120)">
    <rect width="122" height="304" rx="14" fill="#1C2733" stroke="#31414F" stroke-width="4"/>
    <rect width="122" height="12" rx="6" fill="#6FA8DC"/>
    <circle cx="61" cy="76" r="22" fill="none" stroke="#4A6076" stroke-width="6"/>
    <circle cx="61" cy="172" r="22" fill="none" stroke="#4A6076" stroke-width="6"/>
    <rect x="131" width="122" height="304" rx="14" fill="#1C2733" stroke="#31414F" stroke-width="4"/>
    <rect x="131" width="122" height="12" rx="6" fill="#FFC53D"/>
    <circle cx="192" cy="76" r="22" fill="#FFC53D"/>
    <circle cx="192" cy="172" r="22" fill="none" stroke="#4A6076" stroke-width="6"/>
    <rect x="262" width="122" height="304" rx="14" fill="#1C2733" stroke="#31414F" stroke-width="4"/>
    <rect x="262" width="122" height="12" rx="6" fill="#4FB286"/>
    <path d="M297 76 l18 18 l38 -40" fill="none" stroke="#4FB286" stroke-width="10" stroke-linecap="round" stroke-linejoin="round"/>
    <path d="M297 172 l18 18 l38 -40" fill="none" stroke="#4FB286" stroke-width="10" stroke-linecap="round" stroke-linejoin="round"/>
  </g>
  <text x="640" y="586" text-anchor="middle" font-family="'Arial Narrow', Arial, sans-serif" font-size="44" font-weight="600" letter-spacing="8" fill="#E9EDF1">TASK BOARD</text>
  <text x="640" y="632" text-anchor="middle" font-family="'Courier New', monospace" font-size="20" letter-spacing="3" fill="#8397A8">SELF-HOSTED ON ZIMAOS</text>
</svg>
